<?xml version="1.0" encoding="UTF-8" standalone="no"?>
<svg
   xmlns:dc="http://purl.org/dc/elements/1.1/"
   xmlns:cc="http://creativecommons.org/ns#"
   xmlns:rdf="http://www.w3.org/1999/02/22-rdf-syntax-ns#"
   xmlns:svg="http://www.w3.org/2000/svg"
   xmlns="http://www.w3.org/2000/svg"
   xmlns:sodipodi="http://sodipodi.sourceforge.net/DTD/sodipodi-0.dtd"
   xmlns:inkscape="http://www.inkscape.org/namespaces/inkscape"
   id="Layer_1"
   data-name="Layer 1"
   viewBox="0 0 256.00001 256.00001"
   version="1.1"
   sodipodi:docname="favicon.svg"
   width="256"
   height="256"
   inkscape:version="1.0.2 (e86c8708, 2021-01-15)">
  <metadata
     id="metadata61">
    <rdf:RDF>
      <cc:Work
         rdf:about="">
        <dc:format>image/svg+xml</dc:format>
        <dc:type
           rdf:resource="http://purl.org/dc/dcmitype/StillImage" />
        <dc:title>quanto-custa-a-minha-hora</dc:title>
      </cc:Work>
    </rdf:RDF>
  </metadata>
  <defs
     id="defs59" />
  <sodipodi:namedview
     pagecolor="#ffffff"
     bordercolor="#666666"
     borderopacity="1"
     objecttolerance="10"
     gridtolerance="10"
     guidetolerance="10"
     inkscape:pageopacity="0"
     inkscape:pageshadow="2"
     inkscape:window-width="1630"
     inkscape:window-height="997"
     id="namedview57"
     showgrid="false"
     width="256px"
     inkscape:zoom="1.1783069"
     inkscape:cx="289.39828"
     inkscape:cy="122.93039"
     inkscape:window-x="50"
     inkscape:window-y="25"
     inkscape:window-maximized="1"
     inkscape:current-layer="Layer_1" />
  <title
     id="title10">quanto-custa-a-minha-hora</title>
  <rect
     style="fill:#2a3247;fill-rule:evenodd;fill-opacity:1"
     id="rect63"
     width="256"
     height="256"
     x="0"
     y="0" />
  <path
     d="m 190.865,213.00249 a 25.08,25.08 0 0 0 7.38,-1.02 40.92,40.92 0 0 0 8.4,-4.05 v 20.07 a 41.43,41.43 0 0 1 -20.07,4.83 39,39 0 0 1 -20.58,-5.73 41.22,41.22 0 0 1 -15.24,-17.4 104.52,104.52 0 0 1 -22.86,2.28 q -78.780002,0 -78.780002,-88.44 0,-88.439995 78.750002,-88.379995 79.02,0 79.02,88.439995 0,56.67 -32.52,76.98 7.11,12.42 16.5,12.42 z M 90.004998,74.012495 q -12.21,15.24 -12.21,49.559995 0,34.83 12,50.55 v -11.7 a 45.78,45.78 0 0 1 13.350002,-9.78 41.25,41.25 0 0 1 18.87,-4.05 40.05,40.05 0 0 1 23.76,7.5 58.83,58.83 0 0 1 17.67,21 48.84,48.84 0 0 0 10.92,-21 126.75,126.75 0 0 0 3.57,-32.64 q 0,-34.049995 -12,-49.289995 -12,-15.24 -38.07,-15.39 -25.68,0 -37.860002,15.24 z M 127.865,189.90249 q 7.86,-0.51 13.98,-1.53 -9,-18.81 -24,-18.81 a 33.54,33.54 0 0 0 -23.370002,9.66 q 11.520002,10.68 33.390002,10.68 z"
     id="path12"
     style="fill:#ffffff;stroke-width:3" />
</svg>
