<?xml version="1.0" encoding="utf-8"?>
<!-- Generator: Adobe Illustrator 15.0.0, SVG Export Plug-In . SVG Version: 6.00 Build 0)  -->
<!DOCTYPE svg PUBLIC "-//W3C//DTD SVG 1.1//EN" "http://www.w3.org/Graphics/SVG/1.1/DTD/svg11.dtd">
<svg version="1.1" id="Layer_1" xmlns="http://www.w3.org/2000/svg" xmlns:xlink="http://www.w3.org/1999/xlink" x="0px" y="0px"
	 width="453px" height="705px" viewBox="0 0 453 705" enable-background="new 0 0 453 705" xml:space="preserve">
<path fill="#FFFFFF" d="M198.984,400.409c0,0,90.789,58.169,93.412,179.999c-22.066,11.094-55.175,14.303-112.142-2.538
	C205.748,526.334,222.805,465.382,198.984,400.409z"/>
<path fill="#FFFFFF" d="M177.393,296.707c-30.207,0-54.696,24.488-54.696,54.697c0,30.207,24.489,54.696,54.696,54.696
	c30.209,0,54.697-24.489,54.697-54.696C232.09,321.195,207.602,296.707,177.393,296.707z M158.701,394.955
	c-1.942,1.829-6.48,0.16-10.135-3.724c-3.653-3.883-5.041-8.516-3.099-10.342c1.94-1.827,6.478-0.158,10.132,3.727
	C159.256,388.499,160.644,393.13,158.701,394.955z M168.667,386.065c-2.399,2.285-8.049,0.243-12.616-4.56
	c-4.568-4.802-6.325-10.547-3.923-12.829c2.399-2.284,8.05-0.241,12.616,4.559C169.313,378.037,171.069,383.783,168.667,386.065z"/>
<path fill="#EFF286" d="M338.814,217.451c-20.563,0-37.234-16.668-37.234-37.231s16.671-37.233,37.234-37.233
	c2.434,0,4.81,0.241,7.113,0.687c-6.992-3.941-15.063-6.202-23.662-6.202c-26.657,0-48.266,21.608-48.266,48.266
	C274,212.392,295.608,234,322.266,234c19.736,0,36.697-11.854,44.177-28.824C359.629,212.715,349.776,217.451,338.814,217.451z"/>
<g>
	<path fill="#FFFFFF" d="M149.705,461.38c0.389-9.523,4.962-11.378,4.962-11.378l-0.166-3c0,0,4.368-3.071,7.833-4.334
		c2.429-0.887,5.205,0.772,6.167,2.834c0.647-0.162,1.275-0.15,1.87-0.032c-5.745-10.478-3.313-23.484,30.592-22.282
		C152.214,406.544,144.683,445.563,149.705,461.38z"/>
	<path fill="#FFFFFF" d="M183.221,457.609c-2.364-1.098-4.601-2.417-6.922-4.591c-3.498-1.46-1.966,1.481-1.966,1.481l-0.666,3.834
		l-7.333,3.998c0,0-4.834,0.836-6.167-1.832c-5.612-0.279-4.965,8.769-4.619,11.639c9.656,15.134,14.784,16.204,23.483,12.246
		C186.504,482.438,194.975,463.7,183.221,457.609z"/>
</g>
<polygon fill="#EFF286" points="157.167,447.835 164.167,444.668 170.834,453.002 161.501,458.168 "/>
<g>
	<path fill="#293247" d="M343.545,571.95l-115.633-11.922l4.101-85.021l122.92,13.128L343.545,571.95z M233.135,555.54
		l106.106,10.939l10.044-73.918l-112.534-12.019L233.135,555.54z"/>
</g>
<g>
	<path fill="#EFF286" d="M164.732,129.725l6.171-7.707l-6.39-7.525l3.164-9.353l-8.578-4.887l-0.227-9.871l-9.731-1.657l-3.59-9.197
		l-9.712,1.77l-6.519-7.417l-8.521,4.986l-8.662-4.738l-6.302,7.6l-9.758-1.49l-3.324,9.295l-9.683,1.938l0.059,9.87l-8.436,5.134
		l3.431,9.256l-6.171,7.706l6.391,7.527l-3.165,9.353l8.578,4.887l0.227,9.87l9.731,1.659l3.59,9.196l9.713-1.771l6.517,7.416
		l8.521-4.985l8.661,4.739l6.303-7.6l9.759,1.492l3.323-9.298l9.683-1.938l-0.058-9.87l8.435-5.133L164.732,129.725z
		 M121.326,160.987c-21.125,0-38.249-17.124-38.249-38.249c0-21.124,17.124-38.248,38.249-38.248
		c21.124,0,38.248,17.124,38.248,38.248C159.574,143.863,142.45,160.987,121.326,160.987z"/>
	<circle fill="#EFF286" cx="119.004" cy="117.996" r="35.195"/>
</g>
<path fill="#FFFFFF" d="M223,413.5c55.5-36,87.32,14.291,91,33.5c4.5,23.5-0.5,32.5-6.968,34.403
	c-4.456-0.266-29.693,2.797-22.218-16.229C290.743,450.099,276,397,223,413.5z"/>
<polygon fill="#FFFFFF" points="236.751,480.543 349.285,492.561 339.241,566.479 233.135,555.54 "/>
</svg>
