<?xml version="1.0" encoding="utf-8"?>
<!-- Generator: Adobe Illustrator 15.0.0, SVG Export Plug-In . SVG Version: 6.00 Build 0)  -->
<!DOCTYPE svg PUBLIC "-//W3C//DTD SVG 1.1//EN" "http://www.w3.org/Graphics/SVG/1.1/DTD/svg11.dtd">
<svg version="1.1" id="Layer_1" xmlns="http://www.w3.org/2000/svg" xmlns:xlink="http://www.w3.org/1999/xlink" x="0px" y="0px"
	 width="453px" height="705px" viewBox="0 0 453 705" enable-background="new 0 0 453 705" xml:space="preserve">
<g>
	<g>
		<path fill="#C6C66A" d="M374.23,530.808c0,4.219-23.055,7.638-51.495,7.638c-28.439,0-51.494-3.419-51.494-7.638
			c0-1.684,0.245-4.682,0-10.841c16.016,1.725,34.403,3.203,51.494,3.203c18.137,0,31.045-2.957,51.495-3.203
			C373.984,526.128,374.23,529.279,374.23,530.808z"/>
		<ellipse fill="#EFF286" cx="322.735" cy="519.967" rx="51.495" ry="7.638"/>
	</g>
	<g>
		<path fill="#C6C66A" d="M381.13,516.024c0,4.218-23.056,7.638-51.495,7.638c-28.441,0-51.496-3.42-51.496-7.638
			c0-1.684,0.247-4.682,0-10.841c16.016,1.725,34.404,3.203,51.496,3.203c18.137,0,31.045-2.957,51.495-3.203
			C380.884,511.344,381.13,514.496,381.13,516.024z"/>
		<ellipse fill="#EFF286" cx="329.634" cy="505.184" rx="51.496" ry="7.638"/>
	</g>
	<g>
		<path fill="#C6C66A" d="M373.244,500.257c0,4.218-23.055,7.638-51.494,7.638c-28.44,0-51.495-3.42-51.495-7.638
			c0-1.685,0.246-4.683,0-10.843c16.015,1.726,34.402,3.203,51.495,3.203c18.137,0,31.045-2.957,51.494-3.203
			C372.998,495.574,373.244,498.727,373.244,500.257z"/>
		<ellipse fill="#EFF286" cx="321.75" cy="489.414" rx="51.494" ry="7.639"/>
	</g>
	<g>
		<path fill="#C6C66A" d="M390,490.4c0,4.218-23.056,7.637-51.495,7.637c-28.441,0-51.496-3.419-51.496-7.637
			c0-1.684,0.247-4.682,0-10.842c16.016,1.725,34.403,3.203,51.496,3.203c18.136,0,31.045-2.957,51.495-3.203
			C389.754,485.719,390,488.871,390,490.4z"/>
		<ellipse fill="#EFF286" cx="338.504" cy="479.559" rx="51.496" ry="7.639"/>
	</g>
	<g>
		<path fill="#C6C66A" d="M363.39,477.589c0,4.219-23.055,7.638-51.495,7.638s-51.496-3.419-51.496-7.638
			c0-1.685,0.247-4.683,0-10.843c16.017,1.726,34.404,3.203,51.496,3.203c18.137,0,31.045-2.957,51.495-3.203
			C363.144,472.906,363.39,476.059,363.39,477.589z"/>
		<ellipse fill="#EFF286" cx="311.894" cy="466.746" rx="51.496" ry="7.639"/>
	</g>
	<g>
		<path fill="#C6C66A" d="M370.288,462.805c0,4.218-23.055,7.638-51.495,7.638s-51.495-3.42-51.495-7.638
			c0-1.685,0.246-4.683,0-10.842c16.016,1.725,34.403,3.202,51.495,3.202c18.137,0,31.045-2.957,51.495-3.202
			C370.041,458.123,370.288,461.275,370.288,462.805z"/>
		<ellipse fill="#EFF286" cx="318.793" cy="451.963" rx="51.495" ry="7.639"/>
	</g>
	<g>
		<path fill="#C6C66A" d="M365.361,449.992c0,4.22-23.055,7.639-51.496,7.639c-28.439,0-51.494-3.419-51.494-7.639
			c0-1.684,0.246-4.682,0-10.842c16.016,1.725,34.403,3.203,51.494,3.203c18.138,0,31.045-2.957,51.496-3.203
			C365.114,445.311,365.361,448.464,365.361,449.992z"/>
		<ellipse fill="#EFF286" cx="313.865" cy="439.15" rx="51.496" ry="7.639"/>
	</g>
	<g>
		<path fill="#C6C66A" d="M376.201,437.18c0,4.219-23.055,7.638-51.495,7.638s-51.495-3.419-51.495-7.638
			c0-1.685,0.246-4.683,0-10.842c16.016,1.725,34.403,3.202,51.495,3.202c18.138,0,31.046-2.954,51.495-3.202
			C375.955,432.498,376.201,435.65,376.201,437.18z"/>
		<ellipse fill="#EFF286" cx="324.706" cy="426.338" rx="51.496" ry="7.639"/>
	</g>
	<g>
		<path fill="#C6C66A" d="M366.347,420.425c0,4.22-23.056,7.639-51.495,7.639c-28.44,0-51.496-3.419-51.496-7.639
			c0-1.683,0.246-4.681,0-10.841c16.017,1.726,34.404,3.203,51.496,3.203c18.136,0,31.045-2.957,51.495-3.203
			C366.1,415.744,366.347,418.896,366.347,420.425z"/>
		<ellipse fill="#EFF286" cx="314.851" cy="409.584" rx="51.496" ry="7.639"/>
	</g>
	<g>
		<path fill="#C6C66A" d="M373.244,405.642c0,4.218-23.055,7.638-51.494,7.638c-28.44,0-51.495-3.42-51.495-7.638
			c0-1.684,0.246-4.683,0-10.842c16.015,1.726,34.402,3.203,51.495,3.203c18.137,0,31.045-2.957,51.494-3.203
			C372.998,400.96,373.244,404.113,373.244,405.642z"/>
		<ellipse fill="#EFF286" cx="321.75" cy="394.801" rx="51.494" ry="7.638"/>
	</g>
	<g>
		<path fill="#C6C66A" d="M365.361,389.873c0,4.219-23.055,7.639-51.496,7.639c-28.439,0-51.494-3.42-51.494-7.639
			c0-1.684,0.246-4.682,0-10.842c16.016,1.725,34.403,3.203,51.494,3.203c18.138,0,31.045-2.957,51.496-3.203
			C365.114,385.191,365.361,388.344,365.361,389.873z"/>
		<ellipse fill="#EFF286" cx="313.865" cy="379.031" rx="51.496" ry="7.639"/>
	</g>
	<g>
		<path fill="#C6C66A" d="M356.49,376.074c0,4.219-23.055,7.639-51.496,7.639c-28.439,0-51.494-3.42-51.494-7.639
			c0-1.683,0.246-4.681,0-10.84c16.016,1.725,34.403,3.202,51.494,3.202c18.138,0,31.046-2.956,51.496-3.202
			C356.243,371.394,356.49,374.547,356.49,376.074z"/>
		<ellipse fill="#EFF286" cx="304.995" cy="365.234" rx="51.496" ry="7.637"/>
	</g>
	<g>
		<path fill="#C6C66A" d="M381.13,364.248c0,4.219-23.056,7.64-51.495,7.64c-28.441,0-51.496-3.421-51.496-7.64
			c0-1.684,0.247-4.682,0-10.842c16.016,1.726,34.404,3.203,51.496,3.203c18.137,0,31.045-2.956,51.495-3.203
			C380.884,359.566,381.13,362.72,381.13,364.248z"/>
		<ellipse fill="#EFF286" cx="329.634" cy="353.406" rx="51.496" ry="7.639"/>
	</g>
	<g>
		<path fill="#C6C66A" d="M366.347,348.479c0,4.219-23.056,7.639-51.495,7.639c-28.44,0-51.496-3.42-51.496-7.639
			c0-1.684,0.246-4.682,0-10.84c16.017,1.725,34.404,3.201,51.496,3.201c18.136,0,31.045-2.955,51.495-3.201
			C366.1,343.798,366.347,346.951,366.347,348.479z"/>
		<ellipse fill="#EFF286" cx="314.851" cy="337.639" rx="51.496" ry="7.637"/>
	</g>
</g>
<path fill="#FFFFFF" d="M156.202,346.046c0,0,43.173,64.612,56.369,184.101c-22.254,10.71-56.549,21.334-113.219,3.517
	C111.752,467.503,121.212,413.813,156.202,346.046z"/>
<path fill="#FFFFFF" d="M163.311,234.832c-29.948-3.943-57.425,17.138-61.368,47.088c-3.941,29.949,17.141,57.427,47.09,61.368
	c29.949,3.942,57.426-17.14,61.368-47.087C214.343,266.25,193.262,238.774,163.311,234.832z M177.935,324.655
	c-2.668-0.018-4.8-4.356-4.763-9.688c0.035-5.333,2.228-9.642,4.895-9.622c2.665,0.018,4.797,4.355,4.762,9.688
	C182.792,320.365,180.601,324.674,177.935,324.655z M191.414,319.992c-3.313,0.115-6.183-5.161-6.41-11.784
	c-0.229-6.624,2.271-12.087,5.582-12.2c3.312-0.114,6.182,5.162,6.41,11.785C197.224,314.416,194.726,319.879,191.414,319.992z"/>
<path fill="#FFFFFF" d="M163.719,349.656c0,0,60.11-6.102,83.001-18.476c19.974-10.801,37.658-9.099,42.78,3.318
	c-4.226,0.852-23.735-1.308-37.991,11.74C241.546,355.361,181.62,356.41,163.719,349.656z"/>
<path fill="#FFFFFF" d="M148,349.5c0,0-84,7.5-78,70.5c3.028,31.811,44.5,29.5,46.5,19.5S113.55,420.313,97,420
	C78,389,117.5,359.5,148,349.5z"/>
<g enable-background="new    ">
	<path fill="#FFFFFF" d="M193.641,197.315l-7.47,0.077c-0.031-1.073-0.047-1.728-0.05-1.962c-0.025-2.421,0.354-4.418,1.139-5.989
		c0.785-1.57,2.368-3.344,4.75-5.322c2.382-1.978,3.805-3.271,4.267-3.882c0.712-0.964,1.063-2.022,1.051-3.175
		c-0.016-1.601-0.67-2.967-1.961-4.096c-1.291-1.129-3.021-1.683-5.188-1.66c-2.09,0.021-3.831,0.635-5.225,1.841
		c-1.394,1.206-2.342,3.032-2.844,5.479l-7.568-0.86c0.178-3.497,1.637-6.481,4.375-8.951c2.739-2.469,6.353-3.728,10.845-3.774
		c4.726-0.048,8.498,1.148,11.316,3.589c2.818,2.442,4.245,5.303,4.278,8.584c0.019,1.816-0.476,3.54-1.485,5.171
		c-1.009,1.632-3.178,3.861-6.508,6.688c-1.724,1.463-2.791,2.637-3.202,3.52C193.752,193.475,193.578,195.05,193.641,197.315z
		 M186.285,208.465l-0.084-8.231l8.231-0.084l0.084,8.231L186.285,208.465z"/>
</g>
<g enable-background="new    ">
	<path fill="#EFF286" d="M313.629,269.179l-3.938-36.288l-0.173-16.795l14.842-0.153l0.173,16.795l-3.141,36.361L313.629,269.179z
		 M310.842,287.665l-0.142-13.719l13.719-0.141l0.142,13.719L310.842,287.665z"/>
</g>
</svg>
