<?xml version="1.0" encoding="utf-8"?>
<!-- Generator: Adobe Illustrator 15.0.0, SVG Export Plug-In . SVG Version: 6.00 Build 0)  -->
<!DOCTYPE svg PUBLIC "-//W3C//DTD SVG 1.1//EN" "http://www.w3.org/Graphics/SVG/1.1/DTD/svg11.dtd">
<svg version="1.1" id="Layer_1" xmlns="http://www.w3.org/2000/svg" xmlns:xlink="http://www.w3.org/1999/xlink" x="0px" y="0px"
	 width="453px" height="705px" viewBox="0 0 453 705" enable-background="new 0 0 453 705" xml:space="preserve">
<path fill="#FFFFFF" d="M269.984,397.409c0,0,90.789,60.169,93.412,181.999c-22.067,11.094-56.175,16.303-113.142-0.538
	C275.748,527.334,293.805,462.383,269.984,397.409z"/>
<path fill="#FFFFFF" d="M229.393,302.707c-30.207,0-54.696,24.488-54.696,54.697c0,30.207,24.489,54.696,54.696,54.696
	c30.209,0,54.697-24.489,54.697-54.696C284.09,327.195,259.602,302.707,229.393,302.707z M185.935,358.655
	c-2.668-0.018-4.8-4.356-4.763-9.688c0.035-5.333,2.228-9.642,4.895-9.621c2.665,0.018,4.797,4.354,4.763,9.688
	C190.792,354.365,188.601,358.674,185.935,358.655z M199.414,358.992c-3.313,0.115-6.184-5.161-6.41-11.784
	c-0.229-6.624,2.271-12.087,5.582-12.2s6.182,5.162,6.41,11.784C205.225,353.416,202.726,358.879,199.414,358.992z"/>
<path fill="#FFFFFF" d="M257.667,418.002c0,0-62.398,5.934-90.667-4c-24.666-8.667-35.334,10.001-34.85,26.197
	c4.573,0.098,16.85-19.531,36.85-6.863C182.979,442.188,242.925,430.165,257.667,418.002z"/>
<path fill="#293247" d="M159.88,447.828l-0.123-0.002l-1.921-0.058l-0.021-1.923c-0.072-7.83,2.609-19.771,10.417-27.654
	c4.614-4.658,10.181-7.021,16.54-7.021c4.082,0,8.464,1.009,13.024,2.996c15.046,6.56,36.814,7.936,52.429,7.936
	c11.465,0,19.839-0.753,19.923-0.762l6.257-0.569l-4.773,4.293C260.121,434.908,233.371,441,214.159,441c-0.001,0-0.002,0-0.005,0
	c-5.191,0-9.525-0.646-12.881-1.511c-2.98-0.767-6.067-1.261-9.175-1.261c-10.384,0-19.237,4.212-25.095,7.032
	C163.728,446.841,161.563,447.828,159.88,447.828z M184.775,415.173c-5.255,0-9.861,1.964-13.696,5.834
	c-5.776,5.833-8.658,14.878-9.177,22.167c1.013-0.435,2.229-1.021,3.367-1.567c6.188-2.979,15.533-7.479,26.831-7.479
	c3.442,0,6.864,0.433,10.171,1.281c2.986,0.77,7.098,1.175,11.885,1.175c15.281,0,36.298-4.027,48.885-10.778
	c-3.428,0.161-7.834,0.302-12.813,0.302c-15.994,0-38.35-1.435-54.026-8.27C192.148,416.067,188.304,415.173,184.775,415.173z"/>
<path fill="#FFFFFF" d="M184.063,415.494c-5.255,0-9.861,1.963-13.696,5.834c-5.776,5.832-8.658,14.877-9.177,22.166
	c1.013-0.434,2.229-1.021,3.367-1.566c6.188-2.979,15.533-7.48,26.831-7.48c3.442,0,6.864,0.434,10.171,1.282
	c2.986,0.769,7.097,1.174,11.885,1.174c15.281,0,36.298-4.026,48.885-10.777c-3.428,0.16-7.834,0.302-12.813,0.302
	c-15.994,0-38.35-1.436-54.027-8.27C191.436,416.388,187.592,415.494,184.063,415.494z"/>
<polygon fill="#EFF286" points="116.48,440.757 111.515,316.838 101.518,317.029 89.902,333.24 92.199,429.215 102.46,440.045 "/>
<polygon fill="#EFF286" points="181,464 179,454 111,449 115,461 "/>
<line fill="none" stroke="#EFF286" stroke-width="4" stroke-miterlimit="10" x1="332" y1="58" x2="332" y2="164"/>
<path fill="#EFF286" d="M327.125,171.375l5.706-2.708l5.919,2.208c0,0,0.036,3.264,0.375,8.25c0.625,9.25,2.064,7.546,7.706,17.375
	c5.166,9,2.669,23.833-12.331,23.833c-14.25,0-18.5-14.166-16-20.5c4.075-10.331,8.5-9.208,8.5-21.083
	C327.125,174,327,174.125,327.125,171.375z"/>
</svg>
