<?xml version="1.0" encoding="utf-8"?>
<!-- Generator: Adobe Illustrator 15.0.0, SVG Export Plug-In . SVG Version: 6.00 Build 0)  -->
<!DOCTYPE svg PUBLIC "-//W3C//DTD SVG 1.1//EN" "http://www.w3.org/Graphics/SVG/1.1/DTD/svg11.dtd">
<svg version="1.1" id="Layer_1" xmlns="http://www.w3.org/2000/svg" xmlns:xlink="http://www.w3.org/1999/xlink" x="0px" y="0px"
	 width="452.941px" height="707.059px" viewBox="0 0 452.941 707.059" enable-background="new 0 0 452.941 707.059"
	 xml:space="preserve">
<g>
	<path fill="#FFFFFF" d="M250.914,360.865c0,0-85.378,62.353-76.696,183.899c23,9,58,17,113.16-5.049
		C257.218,490.765,233.218,427.765,250.914,360.865z"/>
	<path fill="#FFFFFF" d="M228.61,255.472c-30.207,0-54.696,24.488-54.696,54.697c0,30.207,24.489,54.694,54.696,54.694
		c30.209,0,54.697-24.487,54.697-54.694C283.308,279.96,258.819,255.472,228.61,255.472z M205.18,279.3
		c-2.082-1.668-1.064-6.396,2.271-10.555c3.334-4.162,7.726-6.186,9.807-4.518c2.08,1.667,1.063,6.395-2.271,10.557
		C211.651,278.946,207.26,280.968,205.18,279.3z M230.669,274.789c-4.443,4.916-10.042,7.1-12.499,4.877
		c-2.458-2.224-0.848-8.009,3.599-12.924c4.443-4.916,10.042-7.102,12.499-4.879S235.113,269.874,230.669,274.789z"/>
	<path fill="#FFFFFF" d="M257.218,382.765c0,0,60.479-25.686,90.002-28c25.5-2,11,13,33,19c-4.5,1-31,9-45,0
		S274.218,391.765,257.218,382.765z"/>
	<path fill="#FFFFFF" d="M220.218,383.765c0,0-57.525-25.686-85.608-28c-24.256-2-10.464,13-31.392,19c4.28,1,29.487,9,42.807,0
		C159.339,365.765,204.047,392.765,220.218,383.765z"/>
	<g enable-background="new    ">
		<path fill="#EFF286" d="M193.929,114.702l19.211-23.931c-5.751-8.124-8.634-15.744-8.649-22.862s2.454-13.763,7.406-19.931
			c5.013-6.244,11.193-9.907,18.543-10.99c7.348-1.081,14.557,0.684,21.625,5.293l4.539-5.654l8.282,6.648l-4.539,5.654
			c5.474,5.583,8.631,11.516,9.476,17.796c0.842,6.282-0.533,12.675-4.127,19.181l-15.964-9.715
			c2.729-5.195,2.892-10.076,0.482-14.64l-17.927,22.331c7.15,9.813,10.801,18.018,10.951,24.617
			c0.148,6.601-2.254,12.984-7.205,19.152c-5.533,6.893-12.279,11.025-20.238,12.399c-7.959,1.375-16.08-0.384-24.36-5.279
			l-8.574,10.681l-8.282-6.648l8.345-10.395c-5.946-6.089-9.324-12.839-10.134-20.252c-0.811-7.414,1.222-15.328,6.103-23.747
			l16.19,10.367c-1.837,3.535-2.805,7.079-2.9,10.633C192.086,108.965,192.668,112.062,193.929,114.702z M201.569,122.151
			c3.284,1.76,6.668,2.301,10.155,1.623c3.485-0.676,6.375-2.441,8.667-5.298c2.047-2.55,3.061-5.354,3.04-8.408
			c-0.023-3.054-1.349-6.45-3.981-10.192L201.569,122.151z M242.072,54.733c-2.859-1.042-5.688-1.185-8.486-0.426
			c-2.801,0.756-5.088,2.241-6.86,4.449c-1.621,2.018-2.517,4.381-2.688,7.092c-0.173,2.711,0.549,5.594,2.17,8.646L242.072,54.733z
			"/>
	</g>
</g>
</svg>
