<?xml version="1.0" encoding="utf-8"?>
<!-- Generator: Adobe Illustrator 22.1.0, SVG Export Plug-In . SVG Version: 6.00 Build 0)  -->
<svg version="1.1" id="Layer_1" xmlns="http://www.w3.org/2000/svg" xmlns:xlink="http://www.w3.org/1999/xlink" x="0px" y="0px"
	 viewBox="0 0 452.9 707.1" style="enable-background:new 0 0 452.9 707.1;" xml:space="preserve">
<style type="text/css">
	.st0{fill:url(#SVGID_1_);fill-opacity:0.35;}
	.st1{opacity:0.2;fill:url(#SVGID_2_);}
	.st2{fill:url(#SVGID_3_);}
	.st3{fill:url(#SVGID_4_);}
	.st4{fill:#FFFFFF;}
	.st5{opacity:8.000000e-02;}
	.st6{opacity:0.5;fill:url(#SVGID_5_);}
	.st7{enable-background:new    ;}
	.st8{fill:#EFF286;}
	.st9{fill:url(#SVGID_6_);}
</style>
<radialGradient id="SVGID_1_" cx="217.0001" cy="176.9992" r="292.767" gradientTransform="matrix(-9.173926e-03 1 -0.8415 -7.720601e-03 367.9437 -38.6252)" gradientUnits="userSpaceOnUse">
	<stop  offset="0.1122" style="stop-color:#FFFFFF;stop-opacity:0.2"/>
	<stop  offset="0.2612" style="stop-color:#BDBDBD;stop-opacity:0.2503"/>
	<stop  offset="0.4078" style="stop-color:#838383;stop-opacity:0.2999"/>
	<stop  offset="0.5479" style="stop-color:#545454;stop-opacity:0.3472"/>
	<stop  offset="0.6804" style="stop-color:#303030;stop-opacity:0.392"/>
	<stop  offset="0.8035" style="stop-color:#151515;stop-opacity:0.4336"/>
	<stop  offset="0.9137" style="stop-color:#060606;stop-opacity:0.4708"/>
	<stop  offset="1" style="stop-color:#000000;stop-opacity:0.5"/>
</radialGradient>
<ellipse class="st0" cx="211" cy="321" rx="159.5" ry="150.5"/>
<radialGradient id="SVGID_2_" cx="239.3861" cy="531.1068" r="154.9936" gradientUnits="userSpaceOnUse">
	<stop  offset="0" style="stop-color:#000000"/>
	<stop  offset="0.1411" style="stop-color:#000000"/>
	<stop  offset="0.9984" style="stop-color:#000000"/>
</radialGradient>
<ellipse class="st1" cx="247" cy="550" rx="148" ry="19"/>
<g>
	<radialGradient id="SVGID_3_" cx="227.9232" cy="361.4191" r="198.9579" gradientUnits="userSpaceOnUse">
		<stop  offset="0" style="stop-color:#919191"/>
		<stop  offset="3.916883e-02" style="stop-color:#A9A9A9"/>
		<stop  offset="9.508178e-02" style="stop-color:#C4C4C4"/>
		<stop  offset="0.1594" style="stop-color:#DADADA"/>
		<stop  offset="0.2345" style="stop-color:#EBEBEB"/>
		<stop  offset="0.3274" style="stop-color:#F6F6F6"/>
		<stop  offset="0.4577" style="stop-color:#FDFDFD"/>
		<stop  offset="0.8195" style="stop-color:#FFFFFF"/>
		<stop  offset="0.8832" style="stop-color:#FDFDFD"/>
		<stop  offset="0.9118" style="stop-color:#F6F6F6"/>
		<stop  offset="0.9334" style="stop-color:#E9E9E9"/>
		<stop  offset="0.9515" style="stop-color:#D7D7D7"/>
		<stop  offset="0.9674" style="stop-color:#BFBFBF"/>
		<stop  offset="0.9817" style="stop-color:#A2A2A2"/>
		<stop  offset="0.9946" style="stop-color:#818181"/>
		<stop  offset="0.9984" style="stop-color:#757575"/>
	</radialGradient>
	<path class="st2" d="M250.9,360.9c0,0-85.4,62.4-76.7,183.9C174,565,299,561,287.4,539.7C257.2,490.8,233.2,427.8,250.9,360.9z"/>
	<radialGradient id="SVGID_4_" cx="228.6105" cy="310.1675" r="54.696" gradientUnits="userSpaceOnUse">
		<stop  offset="0" style="stop-color:#FFFFFF"/>
		<stop  offset="0.5481" style="stop-color:#F9F9F9"/>
		<stop  offset="0.9984" style="stop-color:#F0F0F0"/>
	</radialGradient>
	<path class="st3" d="M228.6,255.5c-30.2,0-54.7,24.5-54.7,54.7c0,30.2,24.5,54.7,54.7,54.7c30.2,0,54.7-24.5,54.7-54.7
		C283.3,280,258.8,255.5,228.6,255.5z M205.2,279.3c-2.1-1.7-1.1-6.4,2.3-10.6c3.3-4.2,7.7-6.2,9.8-4.5c2.1,1.7,1.1,6.4-2.3,10.6
		C211.7,278.9,207.3,281,205.2,279.3z M230.7,274.8c-4.4,4.9-10,7.1-12.5,4.9c-2.5-2.2-0.8-8,3.6-12.9c4.4-4.9,10-7.1,12.5-4.9
		S235.1,269.9,230.7,274.8z"/>
	<path class="st4" d="M257.2,382.8c0,0,60.5-25.7,90-28c25.5-2,11,13,33,19c-4.5,1-31,9-45,0S274.2,391.8,257.2,382.8z"/>
	<path class="st4" d="M220.2,383.8c0,0-57.5-25.7-85.6-28c-24.3-2-10.5,13-31.4,19c4.3,1,29.5,9,42.8,0
		C159.3,365.8,204,392.8,220.2,383.8z"/>
	<path class="st5" d="M181,464c0,0,32-85,69.9-103.1C244,385,245,405,248,442C238,429,211,422,181,464z"/>
	
		<radialGradient id="SVGID_5_" cx="220.6105" cy="281.1675" r="68.6689" gradientTransform="matrix(1 0 0 1.2985 0 -83.9321)" gradientUnits="userSpaceOnUse">
		<stop  offset="0.2585" style="stop-color:#FFFFFF"/>
		<stop  offset="0.3634" style="stop-color:#FEFEFE"/>
		<stop  offset="0.4291" style="stop-color:#F3F3F3"/>
		<stop  offset="0.5454" style="stop-color:#D5D5D5"/>
		<stop  offset="0.6989" style="stop-color:#A4A4A4"/>
		<stop  offset="0.8814" style="stop-color:#616161"/>
		<stop  offset="0.9984" style="stop-color:#333333"/>
	</radialGradient>
	<path class="st6" d="M228.6,255.5c-30.2,0-54.7,24.5-54.7,54.7c0,30.2,24.5,54.7,54.7,54.7c30.2,0,54.7-24.5,54.7-54.7
		C283.3,280,258.8,255.5,228.6,255.5z M205.2,279.3c-2.1-1.7-1.1-6.4,2.3-10.6c3.3-4.2,7.7-6.2,9.8-4.5c2.1,1.7,1.1,6.4-2.3,10.6
		C211.7,278.9,207.3,281,205.2,279.3z M230.7,274.8c-4.4,4.9-10,7.1-12.5,4.9c-2.5-2.2-0.8-8,3.6-12.9c4.4-4.9,10-7.1,12.5-4.9
		S235.1,269.9,230.7,274.8z"/>
	<g class="st7">
		<path class="st8" d="M194.4,117.2l19.2-23.9c-5.8-8.1-8.6-15.7-8.6-22.9s2.5-13.8,7.4-19.9c5-6.2,11.2-9.9,18.5-11
			c7.3-1.1,14.6,0.7,21.6,5.3l4.5-5.7l8.3,6.6l-4.5,5.7c5.5,5.6,8.6,11.5,9.5,17.8c0.8,6.3-0.5,12.7-4.1,19.2l-16-9.7
			c2.7-5.2,2.9-10.1,0.5-14.6l-17.9,22.3c7.1,9.8,10.8,18,11,24.6c0.1,6.6-2.3,13-7.2,19.2c-5.5,6.9-12.3,11-20.2,12.4
			c-8,1.4-16.1-0.4-24.4-5.3l-8.6,10.7l-8.3-6.6l8.3-10.4c-5.9-6.1-9.3-12.8-10.1-20.3c-0.8-7.4,1.2-15.3,6.1-23.7l16.2,10.4
			c-1.8,3.5-2.8,7.1-2.9,10.6C192.6,111.5,193.2,114.6,194.4,117.2z M202.1,124.7c3.3,1.8,6.7,2.3,10.2,1.6c3.5-0.7,6.4-2.4,8.7-5.3
			c2-2.6,3.1-5.4,3-8.4c0-3.1-1.3-6.4-4-10.2L202.1,124.7z M242.6,57.2c-2.9-1-5.7-1.2-8.5-0.4c-2.8,0.8-5.1,2.2-6.9,4.4
			c-1.6,2-2.5,4.4-2.7,7.1c-0.2,2.7,0.5,5.6,2.2,8.6L242.6,57.2z"/>
	</g>
	<g class="st7">
		<linearGradient id="SVGID_6_" gradientUnits="userSpaceOnUse" x1="239.9421" y1="85.6704" x2="138.4421" y2="118.6704">
			<stop  offset="0" style="stop-color:#FFFFFF;stop-opacity:0"/>
			<stop  offset="3.256531e-02" style="stop-color:#FFFFFF;stop-opacity:1.942077e-02"/>
			<stop  offset="0.6707" style="stop-color:#FFFFFF;stop-opacity:0.4"/>
			<stop  offset="0.7173" style="stop-color:#FFFFFF;stop-opacity:0.3435"/>
			<stop  offset="1" style="stop-color:#FFFFFF;stop-opacity:0"/>
		</linearGradient>
		<path class="st9" d="M194.4,117.2l19.2-23.9c-5.8-8.1-8.6-15.7-8.6-22.9s2.5-13.8,7.4-19.9c5-6.2,11.2-9.9,18.5-11
			c7.3-1.1,14.6,0.7,21.6,5.3l4.5-5.7l8.3,6.6l-4.5,5.7c5.5,5.6,8.6,11.5,9.5,17.8c0.8,6.3-0.5,12.7-4.1,19.2l-16-9.7
			c2.7-5.2,2.9-10.1,0.5-14.6l-17.9,22.3c7.1,9.8,10.8,18,11,24.6c0.1,6.6-2.3,13-7.2,19.2c-5.5,6.9-12.3,11-20.2,12.4
			c-8,1.4-16.1-0.4-24.4-5.3l-8.6,10.7l-8.3-6.6l8.3-10.4c-5.9-6.1-9.3-12.8-10.1-20.3c-0.8-7.4,1.2-15.3,6.1-23.7l16.2,10.4
			c-1.8,3.5-2.8,7.1-2.9,10.6C192.6,111.5,193.2,114.6,194.4,117.2z M202.1,124.7c3.3,1.8,6.7,2.3,10.2,1.6c3.5-0.7,6.4-2.4,8.7-5.3
			c2-2.6,3.1-5.4,3-8.4c0-3.1-1.3-6.4-4-10.2L202.1,124.7z M242.6,57.2c-2.9-1-5.7-1.2-8.5-0.4c-2.8,0.8-5.1,2.2-6.9,4.4
			c-1.6,2-2.5,4.4-2.7,7.1c-0.2,2.7,0.5,5.6,2.2,8.6L242.6,57.2z"/>
	</g>
</g>
</svg>
